<?xml version="1.0" encoding="UTF-8" standalone="no"?>
<!-- Created with Inkscape (http://www.inkscape.org/) -->

<svg
   xmlns:ns0="http://www.iki.fi/pav/software/textext/"
   xmlns:dc="http://purl.org/dc/elements/1.1/"
   xmlns:cc="http://creativecommons.org/ns#"
   xmlns:rdf="http://www.w3.org/1999/02/22-rdf-syntax-ns#"
   xmlns:svg="http://www.w3.org/2000/svg"
   xmlns="http://www.w3.org/2000/svg"
   xmlns:sodipodi="http://sodipodi.sourceforge.net/DTD/sodipodi-0.dtd"
   xmlns:inkscape="http://www.inkscape.org/namespaces/inkscape"
   inkscape:version="0.92.3 (2405546, 2018-03-11)"
   version="1.1"
   id="svg2"
   viewBox="0 0 148.16061 116.70612"
   height="32.937061mm"
   width="41.814217mm"
   sodipodi:docname="foliacion31.svg">
  <sodipodi:namedview
     inkscape:window-maximized="1"
     inkscape:window-y="27"
     inkscape:window-x="52"
     inkscape:window-height="1016"
     inkscape:window-width="1868"
     showgrid="true"
     inkscape:current-layer="layer1"
     inkscape:document-units="px"
     inkscape:cy="60.479042"
     inkscape:cx="26.591792"
     inkscape:zoom="5.6"
     inkscape:pageshadow="2"
     inkscape:pageopacity="0.0"
     borderopacity="1.0"
     bordercolor="#666666"
     pagecolor="#ffffff"
     id="base"
     fit-margin-top="0"
     fit-margin-left="0"
     fit-margin-right="0"
     fit-margin-bottom="0">
    <inkscape:grid
       type="xygrid"
       id="grid3336"
       originx="-209.28204"
       originy="-468.40189" />
  </sodipodi:namedview>
  <defs
     id="defs4">
    <marker
       inkscape:stockid="Arrow1Send"
       orient="auto"
       refY="0"
       refX="0"
       id="marker11915"
       style="overflow:visible"
       inkscape:isstock="true">
      <path
         id="path11917"
         d="M 0,0 5,-5 -12.5,0 5,5 Z"
         style="fill:#000000;fill-opacity:1;fill-rule:evenodd;stroke:#000000;stroke-width:1.00000003pt;stroke-opacity:1"
         transform="matrix(-0.2,0,0,-0.2,-1.2,0)"
         inkscape:connector-curvature="0" />
    </marker>
    <marker
       inkscape:collect="always"
       inkscape:isstock="true"
       style="overflow:visible"
       id="marker10339"
       refX="0"
       refY="0"
       orient="auto"
       inkscape:stockid="Arrow1Send">
      <path
         transform="matrix(-0.2,0,0,-0.2,-1.2,0)"
         style="fill:#000000;fill-opacity:1;fill-rule:evenodd;stroke:#000000;stroke-width:1.00000003pt;stroke-opacity:1"
         d="M 0,0 5,-5 -12.5,0 5,5 Z"
         id="path10341"
         inkscape:connector-curvature="0" />
    </marker>
    <marker
       inkscape:stockid="StopM"
       orient="auto"
       refY="0"
       refX="0"
       id="marker8156"
       style="overflow:visible"
       inkscape:isstock="true">
      <path
         id="path8158"
         d="M 0,5.65 V -5.65"
         style="fill:none;fill-opacity:0.75;fill-rule:evenodd;stroke:#000000;stroke-width:1.00000003pt;stroke-opacity:1"
         transform="scale(0.4)"
         inkscape:connector-curvature="0" />
    </marker>
    <marker
       inkscape:stockid="StopM"
       orient="auto"
       refY="0"
       refX="0"
       id="StopM"
       style="overflow:visible"
       inkscape:isstock="true">
      <path
         id="path4412"
         d="M 0,5.65 V -5.65"
         style="fill:none;fill-opacity:0.75;fill-rule:evenodd;stroke:#000000;stroke-width:1.00000003pt;stroke-opacity:1"
         transform="scale(0.4)"
         inkscape:connector-curvature="0" />
    </marker>
    <marker
       inkscape:stockid="StopL"
       orient="auto"
       refY="0"
       refX="0"
       id="marker7714"
       style="overflow:visible"
       inkscape:isstock="true">
      <path
         id="path7716"
         d="M 0,5.65 V -5.65"
         style="fill:none;fill-opacity:0.75;fill-rule:evenodd;stroke:#000000;stroke-width:1.00000003pt;stroke-opacity:1"
         transform="scale(0.8)"
         inkscape:connector-curvature="0" />
    </marker>
    <marker
       inkscape:stockid="StopL"
       orient="auto"
       refY="0"
       refX="0"
       id="StopL"
       style="overflow:visible"
       inkscape:isstock="true">
      <path
         id="path4409"
         d="M 0,5.65 V -5.65"
         style="fill:none;fill-opacity:0.75;fill-rule:evenodd;stroke:#000000;stroke-width:1.00000003pt;stroke-opacity:1"
         transform="scale(0.8)"
         inkscape:connector-curvature="0" />
    </marker>
    <marker
       inkscape:stockid="Arrow1Send"
       orient="auto"
       refY="0"
       refX="0"
       id="marker4935"
       style="overflow:visible"
       inkscape:isstock="true">
      <path
         id="path4937"
         d="M 0,0 5,-5 -12.5,0 5,5 Z"
         style="fill:#000000;fill-opacity:1;fill-rule:evenodd;stroke:#000000;stroke-width:1.00000003pt;stroke-opacity:1"
         transform="matrix(-0.2,0,0,-0.2,-1.2,0)"
         inkscape:connector-curvature="0" />
    </marker>
    <marker
       inkscape:isstock="true"
       style="overflow:visible"
       id="marker4865"
       refX="0"
       refY="0"
       orient="auto"
       inkscape:stockid="Arrow1Send"
       inkscape:collect="always">
      <path
         transform="matrix(-0.2,0,0,-0.2,-1.2,0)"
         style="fill:#000000;fill-opacity:1;fill-rule:evenodd;stroke:#000000;stroke-width:1.00000003pt;stroke-opacity:1"
         d="M 0,0 5,-5 -12.5,0 5,5 Z"
         id="path4867"
         inkscape:connector-curvature="0" />
    </marker>
    <marker
       inkscape:collect="always"
       inkscape:stockid="Arrow1Send"
       orient="auto"
       refY="0"
       refX="0"
       id="Arrow1Send"
       style="overflow:visible"
       inkscape:isstock="true">
      <path
         id="path4255"
         d="M 0,0 5,-5 -12.5,0 5,5 Z"
         style="fill:#000000;fill-opacity:1;fill-rule:evenodd;stroke:#000000;stroke-width:1.00000003pt;stroke-opacity:1"
         transform="matrix(-0.2,0,0,-0.2,-1.2,0)"
         inkscape:connector-curvature="0" />
    </marker>
    <marker
       inkscape:stockid="Arrow2Mend"
       orient="auto"
       refY="0"
       refX="0"
       id="marker4743"
       style="overflow:visible"
       inkscape:isstock="true">
      <path
         id="path4745"
         style="fill:#000000;fill-opacity:1;fill-rule:evenodd;stroke:#000000;stroke-width:0.625;stroke-linejoin:round;stroke-opacity:1"
         d="M 8.7185878,4.0337352 -2.2072895,0.01601326 8.7185884,-4.0017078 c -1.7454984,2.3720609 -1.7354408,5.6174519 -6e-7,8.035443 z"
         transform="scale(-0.6)"
         inkscape:connector-curvature="0" />
    </marker>
    <marker
       inkscape:stockid="Arrow2Lend"
       orient="auto"
       refY="0"
       refX="0"
       id="Arrow2Lend"
       style="overflow:visible"
       inkscape:isstock="true">
      <path
         id="path4261"
         style="fill:#000000;fill-opacity:1;fill-rule:evenodd;stroke:#000000;stroke-width:0.625;stroke-linejoin:round;stroke-opacity:1"
         d="M 8.7185878,4.0337352 -2.2072895,0.01601326 8.7185884,-4.0017078 c -1.7454984,2.3720609 -1.7354408,5.6174519 -6e-7,8.035443 z"
         transform="matrix(-1.1,0,0,-1.1,-1.1,0)"
         inkscape:connector-curvature="0" />
    </marker>
    <marker
       inkscape:stockid="Arrow2Send"
       orient="auto"
       refY="0"
       refX="0"
       id="Arrow2Send"
       style="overflow:visible"
       inkscape:isstock="true">
      <path
         id="path4273"
         style="fill:#000000;fill-opacity:1;fill-rule:evenodd;stroke:#000000;stroke-width:0.625;stroke-linejoin:round;stroke-opacity:1"
         d="M 8.7185878,4.0337352 -2.2072895,0.01601326 8.7185884,-4.0017078 c -1.7454984,2.3720609 -1.7354408,5.6174519 -6e-7,8.035443 z"
         transform="matrix(-0.3,0,0,-0.3,0.69,0)"
         inkscape:connector-curvature="0" />
    </marker>
    <marker
       inkscape:stockid="Arrow2Mend"
       orient="auto"
       refY="0"
       refX="0"
       id="marker4542"
       style="overflow:visible"
       inkscape:isstock="true">
      <path
         id="path4544"
         style="fill:#000000;fill-opacity:1;fill-rule:evenodd;stroke:#000000;stroke-width:0.625;stroke-linejoin:round;stroke-opacity:1"
         d="M 8.7185878,4.0337352 -2.2072895,0.01601326 8.7185884,-4.0017078 c -1.7454984,2.3720609 -1.7354408,5.6174519 -6e-7,8.035443 z"
         transform="scale(-0.6)"
         inkscape:connector-curvature="0" />
    </marker>
    <marker
       inkscape:stockid="Arrow2Mend"
       orient="auto"
       refY="0"
       refX="0"
       id="Arrow2Mend"
       style="overflow:visible"
       inkscape:isstock="true">
      <path
         id="path4267"
         style="fill:#000000;fill-opacity:1;fill-rule:evenodd;stroke:#000000;stroke-width:0.625;stroke-linejoin:round;stroke-opacity:1"
         d="M 8.7185878,4.0337352 -2.2072895,0.01601326 8.7185884,-4.0017078 c -1.7454984,2.3720609 -1.7354408,5.6174519 -6e-7,8.035443 z"
         transform="scale(-0.6)"
         inkscape:connector-curvature="0" />
    </marker>
    <marker
       inkscape:stockid="Arrow2Lstart"
       orient="auto"
       refY="0"
       refX="0"
       id="Arrow2Lstart"
       style="overflow:visible"
       inkscape:isstock="true">
      <path
         id="path4258"
         style="fill:#000000;fill-opacity:1;fill-rule:evenodd;stroke:#000000;stroke-width:0.625;stroke-linejoin:round;stroke-opacity:1"
         d="M 8.7185878,4.0337352 -2.2072895,0.01601326 8.7185884,-4.0017078 c -1.7454984,2.3720609 -1.7354408,5.6174519 -6e-7,8.035443 z"
         transform="matrix(1.1,0,0,1.1,1.1,0)"
         inkscape:connector-curvature="0" />
    </marker>
  </defs>
  <metadata
     id="metadata7">
    <rdf:RDF>
      <cc:Work
         rdf:about="">
        <dc:format>image/svg+xml</dc:format>
        <dc:type
           rdf:resource="http://purl.org/dc/dcmitype/StillImage" />
        <dc:title></dc:title>
      </cc:Work>
    </rdf:RDF>
  </metadata>
  <g
     inkscape:label="Layer 1"
     inkscape:groupmode="layer"
     id="layer1"
     transform="translate(-209.28205,-467.25423)">
    <path
       style="fill:none;fill-rule:evenodd;stroke:#000000;stroke-width:1px;stroke-linecap:butt;stroke-linejoin:miter;stroke-opacity:1"
       d="m 220,502.3622 c 45.20881,-18.23084 80.01408,-0.0493 120,0"
       id="path4618"
       inkscape:connector-curvature="0"
       sodipodi:nodetypes="cc" />
    <path
       style="fill:none;fill-rule:evenodd;stroke:#000000;stroke-width:1px;stroke-linecap:butt;stroke-linejoin:miter;stroke-opacity:1"
       d="m 330.17857,521.82649 c -39.98592,-0.0493 -74.79119,-18.23084 -120,0 1.13259,-4.11006 2.47251,-8.1942 4.64569,-12.17419 1.35232,-2.47665 3.02729,-4.91297 5.17574,-7.2901"
       id="path4618-2"
       inkscape:connector-curvature="0"
       sodipodi:nodetypes="ccsc" />
    <path
       style="fill:none;fill-rule:evenodd;stroke:#000000;stroke-width:1px;stroke-linecap:butt;stroke-linejoin:miter;stroke-opacity:1"
       d="m 330,522.3622 10,-20"
       id="path4674"
       inkscape:connector-curvature="0" />
    <path
       style="fill:none;fill-rule:evenodd;stroke:#000000;stroke-width:1px;stroke-linecap:butt;stroke-linejoin:miter;stroke-opacity:1;marker-end:url(#Arrow1Send)"
       d="m 255,502.3622 v -25"
       id="path4697"
       inkscape:connector-curvature="0" />
    <path
       style="fill:none;fill-rule:evenodd;stroke:#000000;stroke-width:0.97833675px;stroke-linecap:butt;stroke-linejoin:miter;stroke-opacity:1"
       d="M 255,537.3622 V 513.43363"
       id="path4851"
       inkscape:connector-curvature="0" />
    <path
       style="fill:none;fill-rule:evenodd;stroke:#000000;stroke-width:0.84515429px;stroke-linecap:butt;stroke-linejoin:miter;stroke-opacity:1"
       d="M 255,563.07648 V 548.79076"
       id="path4853"
       inkscape:connector-curvature="0" />
    <path
       style="fill:none;fill-rule:evenodd;stroke:#000000;stroke-width:1px;stroke-linecap:butt;stroke-linejoin:miter;stroke-opacity:1;marker-end:url(#marker4935)"
       d="m 254.64286,562.71934 h 45"
       id="path4855"
       inkscape:connector-curvature="0" />
    <path
       style="fill:none;fill-rule:evenodd;stroke:#000000;stroke-width:1px;stroke-linecap:butt;stroke-linejoin:miter;stroke-opacity:1;marker-end:url(#marker4865)"
       d="m 254.64286,562.71934 -20,20"
       id="path4857"
       inkscape:connector-curvature="0" />
    <flowRoot
       xml:space="preserve"
       id="flowRoot5659"
       style="font-style:normal;font-weight:normal;line-height:0.01%;font-family:sans-serif;letter-spacing:0px;word-spacing:0px;fill:#000000;fill-opacity:1;stroke:none;stroke-width:1px;stroke-linecap:butt;stroke-linejoin:miter;stroke-opacity:1"
       transform="matrix(0.55511143,0,0,0.55511143,138.27209,223.63996)"><flowRegion
         id="flowRegion5661"><rect
           id="rect5663"
           width="68.298744"
           height="31.522499"
           x="281.74323"
           y="443.58374" /></flowRegion><flowPara
         id="flowPara5665"
         style="font-size:8.40600014px;line-height:1.25">Foliación del espacio-tiempo</flowPara></flowRoot>    <path
       style="opacity:1;fill:none;fill-opacity:1"
       d="m 322.06238,520.96982 c -0.48614,-0.0453 -2.47488,-0.20521 -4.41942,-0.35545 -5.3474,-0.41314 -12.60884,-1.35363 -23.23351,-3.00917 -24.34647,-3.79369 -30.17798,-4.41038 -41.66879,-4.40652 -8.54247,0.003 -12.76928,0.34306 -20.45559,1.64634 -5.78352,0.98065 -12.58428,2.78954 -18.134,4.82335 -1.50697,0.55227 -2.79219,0.95187 -2.85605,0.88801 -0.0639,-0.0639 0.29373,-1.35237 0.79463,-2.86337 1.68332,-5.07786 4.70642,-10.69481 7.40389,-13.75649 0.91898,-1.04306 1.34875,-1.27858 4.25522,-2.33192 8.63531,-3.12953 16.33199,-4.94048 25.45603,-5.98953 2.36104,-0.27146 4.49183,-0.49357 4.73509,-0.49357 0.40101,0 0.44228,0.34167 0.44228,3.6618 v 3.66181 h 0.63134 0.63135 v -3.64633 -3.64633 l 1.19048,-0.17853 c 1.77432,-0.26607 13.9722,0.0656 18.8863,0.51354 6.15125,0.56072 12.4758,1.41315 26.26397,3.53992 17.7313,2.73498 24.07282,3.47604 32.74887,3.82695 l 4.21206,0.17037 -4.52842,9.05411 -4.52842,9.05412 -3.47171,-0.0404 c -1.90945,-0.0222 -3.86947,-0.0774 -4.3556,-0.12269 z"
       id="path6127"
       inkscape:connector-curvature="0" />
    <path
       style="fill:none;fill-rule:evenodd;stroke:#000000;stroke-width:1px;stroke-linecap:butt;stroke-linejoin:miter;stroke-opacity:1"
       d="m 219.85409,537.61984 c 45.20881,-18.23084 80.01408,-0.0493 120,0"
       id="path4618-1"
       inkscape:connector-curvature="0"
       sodipodi:nodetypes="cc" />
    <path
       style="fill:none;fill-rule:evenodd;stroke:#000000;stroke-width:1px;stroke-linecap:butt;stroke-linejoin:miter;stroke-opacity:1"
       d="m 330.03266,557.08413 c -39.98592,-0.0493 -74.79119,-18.23084 -120,0 1.13259,-4.11006 2.47251,-8.1942 4.64569,-12.17419 1.35232,-2.47665 3.02729,-4.91297 5.17574,-7.2901"
       id="path4618-2-9"
       inkscape:connector-curvature="0"
       sodipodi:nodetypes="ccsc" />
    <path
       style="fill:none;fill-rule:evenodd;stroke:#000000;stroke-width:1px;stroke-linecap:butt;stroke-linejoin:miter;stroke-opacity:1"
       d="m 329.85409,557.61984 10,-20"
       id="path4674-4"
       inkscape:connector-curvature="0" />
    <path
       style="opacity:1;fill:none;fill-opacity:1"
       d="m 321.91647,556.22746 c -0.48614,-0.0453 -2.47488,-0.20521 -4.41942,-0.35545 -5.3474,-0.41314 -12.60884,-1.35363 -23.23351,-3.00917 -24.34647,-3.79369 -30.17798,-4.41038 -41.66879,-4.40652 -8.54247,0.003 -12.76928,0.34306 -20.45559,1.64634 -5.78352,0.98065 -12.58428,2.78954 -18.134,4.82335 -1.50697,0.55227 -2.79219,0.95187 -2.85605,0.88801 -0.0639,-0.0639 0.29373,-1.35237 0.79463,-2.86337 1.68332,-5.07786 4.70642,-10.69481 7.40389,-13.75649 0.91898,-1.04306 1.34875,-1.27858 4.25522,-2.33192 8.63531,-3.12953 16.33199,-4.94048 25.45603,-5.98953 2.36104,-0.27146 4.49183,-0.49357 4.73509,-0.49357 0.40101,0 0.44228,0.34167 0.44228,3.6618 v 3.66181 h 0.63134 0.63135 v -3.64633 -3.64633 l 1.19048,-0.17853 c 1.77432,-0.26607 13.9722,0.0656 18.8863,0.51354 6.15125,0.56072 12.4758,1.41315 26.26397,3.53992 17.7313,2.73498 24.07282,3.47604 32.74887,3.82695 l 4.21206,0.17037 -4.52842,9.05411 -4.52842,9.05412 -3.47171,-0.0404 c -1.90945,-0.0222 -3.86947,-0.0774 -4.3556,-0.12269 z"
       id="path6127-7"
       inkscape:connector-curvature="0" />
    <path
       style="fill:none;fill-rule:evenodd;stroke:#000000;stroke-width:0.60000002;stroke-linecap:butt;stroke-linejoin:miter;stroke-miterlimit:4;stroke-dasharray:none;stroke-opacity:1;marker-end:url(#marker8156)"
       d="m 252.32301,513.22825 v 24"
       id="path7658"
       inkscape:connector-curvature="0" />
    <path
       style="fill:none;fill-rule:evenodd;stroke:#000000;stroke-width:0.60000002;stroke-linecap:butt;stroke-linejoin:miter;stroke-miterlimit:4;stroke-dasharray:1.8, 1.8;stroke-dashoffset:0;stroke-opacity:1;marker-start:url(#StopM)"
       d="m 252.32797,502.50152 v 11"
       id="path7712"
       inkscape:connector-curvature="0" />
    <g
       id="g8302"
       transform="matrix(0.76926177,0,0,-0.76926177,61.531159,1030.0712)"
       xml:space="preserve"
       stroke-miterlimit="10.433"
       font-style="normal"
       font-variant="normal"
       font-weight="normal"
       font-stretch="normal"
       font-size-adjust="none"
       letter-spacing="normal"
       word-spacing="normal"
       ns0:text="$\\alpha\\ dt$"
       ns0:preamble="/home/uzmar/Documents/inkscape.ini"
       style="font-style:normal;font-variant:normal;font-weight:normal;font-stretch:normal;letter-spacing:normal;word-spacing:normal;text-anchor:start;fill:none;fill-opacity:1;fill-rule:evenodd;stroke:#000000;stroke-linecap:butt;stroke-linejoin:miter;stroke-miterlimit:10.43299961;stroke-dasharray:none;stroke-dashoffset:0;stroke-opacity:1"><path
         style="fill:#000000;stroke-width:0"
         inkscape:connector-curvature="0"
         d="m 228.18,659.58 v 0.08 0.07 0.07 l -0.01,0.06 -0.01,0.14 -0.02,0.12 -0.02,0.12 -0.03,0.11 -0.03,0.11 -0.03,0.1 -0.04,0.1 -0.04,0.09 -0.05,0.09 -0.05,0.08 -0.05,0.08 -0.05,0.07 -0.06,0.06 -0.06,0.07 -0.06,0.05 -0.07,0.06 -0.06,0.04 -0.07,0.05 -0.07,0.04 -0.07,0.04 -0.07,0.03 -0.07,0.03 -0.07,0.02 -0.07,0.02 -0.07,0.02 -0.08,0.01 -0.07,0.01 -0.07,0.01 h -0.07 l -0.07,0.01 -0.01,-0.22 c 0.99,0 0.99,-1.31 0.99,-2.08 0,-0.37 0,-0.95 0.02,-1.12 v 0 c -0.88,-0.77 -1.65,-0.88 -2.04,-0.88 -0.6,0 -0.9,0.45 -0.9,1.09 0,0.49 0.26,1.56 0.58,2.07 0.46,0.73 1,0.92 1.35,0.92 l 0.01,0.22 c -1.36,0 -2.68,-1.43 -2.68,-2.83 0,-0.93 0.6,-1.69 1.62,-1.69 0.62,0 1.34,0.23 2.1,0.84 0.13,-0.53 0.45,-0.84 0.9,-0.84 0.53,0 0.84,0.55 0.84,0.71 0,0.07 -0.06,0.1 -0.12,0.1 -0.07,0 -0.1,-0.03 -0.13,-0.1 -0.18,-0.49 -0.54,-0.49 -0.56,-0.49 -0.31,0 -0.31,0.78 -0.31,1.02 0,0.21 0,0.23 0.1,0.35 0.94,1.17 1.15,2.33 1.15,2.34 0,0.02 -0.01,0.1 -0.12,0.1 -0.1,0 -0.1,-0.03 -0.15,-0.21 -0.18,-0.63 -0.51,-1.39 -0.98,-1.97 z"
         id="path8304" /><path
         style="fill:#000000;stroke-width:0"
         inkscape:connector-curvature="0"
         d="m 240.4,661.22 h 0.94 c 0.2,0 0.3,0 0.3,0.2 0,0.11 -0.1,0.11 -0.28,0.11 h -0.88 c 0.36,1.41 0.41,1.61 0.41,1.67 0,0.17 -0.12,0.27 -0.29,0.27 -0.03,0 -0.31,-0.01 -0.4,-0.36 l -0.39,-1.58 h -0.93 c -0.2,0 -0.3,0 -0.3,-0.19 0,-0.12 0.08,-0.12 0.28,-0.12 h 0.88 c -0.72,-2.83 -0.76,-3 -0.76,-3.18 0,-0.54 0.38,-0.92 0.91,-0.92 1.02,0 1.59,1.46 1.59,1.54 0,0.1 -0.08,0.1 -0.12,0.1 -0.09,0 -0.1,-0.03 -0.15,-0.14 -0.43,-1.04 -0.96,-1.28 -1.3,-1.28 -0.2,0 -0.31,0.13 -0.31,0.46 0,0.24 0.02,0.31 0.06,0.48 z"
         id="path8308" /><flowRoot
         xml:space="preserve"
         id="flowRoot103"
         style="font-style:normal;font-weight:normal;font-size:40px;line-height:1.25;font-family:sans-serif;letter-spacing:0px;word-spacing:0px;fill:#000000;fill-opacity:1;stroke:none"
         transform="matrix(0.1958454,0,0,-0.1958454,246.40208,674.34309)"><flowRegion
           id="flowRegion105"><rect
             id="rect107"
             width="105"
             height="75"
             x="-68.234177"
             y="50.335686" /></flowRegion><flowPara
           id="flowPara109">d</flowPara></flowRoot></g>    <g
       style="font-style:normal;font-variant:normal;font-weight:normal;font-stretch:normal;letter-spacing:normal;word-spacing:normal;text-anchor:start;fill:none;fill-opacity:1;fill-rule:evenodd;stroke:#000000;stroke-linecap:butt;stroke-linejoin:miter;stroke-miterlimit:10.43299961;stroke-dasharray:none;stroke-dashoffset:0;stroke-opacity:1"
       ns0:preamble="/home/uzmar/Documents/inkscape.ini"
       ns0:text="$\\gamma_{ij}$"
       word-spacing="normal"
       letter-spacing="normal"
       font-size-adjust="none"
       font-stretch="normal"
       font-weight="normal"
       font-variant="normal"
       font-style="normal"
       stroke-miterlimit="10.433"
       xml:space="preserve"
       transform="matrix(0.76926177,0,0,-0.76926177,106.35259,1047.0355)"
       id="g9670"><path
         id="path9672"
         d="m 223.84,659.76 0.02,0.06 0.02,0.05 0.02,0.05 0.02,0.04 0.02,0.05 0.03,0.05 0.02,0.04 0.03,0.04 0.02,0.04 0.03,0.04 0.02,0.04 0.03,0.04 0.06,0.06 0.06,0.07 0.06,0.06 0.06,0.05 0.06,0.05 0.06,0.04 0.07,0.04 0.06,0.04 0.06,0.03 0.07,0.03 0.06,0.03 0.06,0.02 0.06,0.02 0.06,0.02 0.05,0.01 0.06,0.01 0.05,0.01 0.05,0.01 0.04,0.01 h 0.04 0.04 l 0.03,0.01 h 0.03 0.02 0.02 0.02 c 1.5,0 1.61,-1.75 1.61,-2.53 0,-0.61 -0.05,-0.78 -0.12,-0.98 -0.22,-0.73 -0.52,-1.88 -0.52,-2.14 0,-0.11 0.05,-0.18 0.13,-0.18 0.13,0 0.21,0.22 0.32,0.6 0.23,0.84 0.33,1.4 0.37,1.71 0.02,0.13 0.04,0.26 0.08,0.39 0.32,0.99 0.95,2.47 1.35,3.26 0.07,0.12 0.19,0.34 0.19,0.38 0,0.1 -0.1,0.1 -0.12,0.1 -0.03,0 -0.09,0 -0.12,-0.07 -0.51,-0.95 -0.91,-1.95 -1.31,-2.95 -0.01,0.31 -0.02,1.06 -0.41,2.03 -0.24,0.61 -0.64,1.1 -1.33,1.1 -1.24,0 -1.94,-1.52 -1.94,-1.83 0,-0.1 0.09,-0.1 0.19,-0.1 z"
         inkscape:connector-curvature="0"
         style="fill:#000000;stroke-width:0" /><path
         id="path9674"
         d="m 230.85,660.1 v 0.01 0.01 0.01 0.01 0.01 l -0.01,0.01 v 0.02 0.01 l -0.01,0.01 v 0.01 l -0.01,0.01 v 0.01 l -0.01,0.01 -0.01,0.01 -0.01,0.01 v 0.01 l -0.01,0.01 -0.01,0.01 -0.01,0.01 -0.01,0.01 -0.01,0.01 h -0.02 l -0.01,0.01 -0.01,0.01 h -0.01 l -0.02,0.01 h -0.01 l -0.02,0.01 h -0.02 -0.01 -0.02 -0.02 c -0.19,0 -0.39,-0.18 -0.39,-0.38 0,-0.12 0.09,-0.26 0.28,-0.26 0.2,0 0.39,0.19 0.39,0.38 z"
         inkscape:connector-curvature="0"
         style="fill:#000000;stroke-width:0" /><path
         id="path9676"
         d="m 229.43,656.56 -0.01,-0.02 v -0.02 l -0.01,-0.03 -0.01,-0.02 v -0.02 l -0.01,-0.01 v -0.02 l -0.01,-0.02 v -0.02 -0.01 l -0.01,-0.02 v -0.01 -0.01 -0.01 -0.01 -0.01 -0.02 -0.01 -0.01 c 0,-0.33 0.28,-0.59 0.66,-0.59 0.7,0 1,0.96 1,1.07 0,0.09 -0.09,0.09 -0.11,0.09 -0.1,0 -0.1,-0.04 -0.13,-0.12 -0.16,-0.56 -0.47,-0.84 -0.74,-0.84 -0.14,0 -0.17,0.09 -0.17,0.24 0,0.16 0.04,0.29 0.11,0.45 0.07,0.18 0.14,0.37 0.22,0.55 0.06,0.17 0.31,0.81 0.34,0.89 0.02,0.07 0.04,0.15 0.04,0.22 0,0.33 -0.27,0.6 -0.66,0.6 -0.69,0 -1.01,-0.95 -1.01,-1.07 0,-0.09 0.1,-0.09 0.12,-0.09 0.1,0 0.1,0.03 0.12,0.11 0.19,0.6 0.49,0.85 0.75,0.85 0.11,0 0.18,-0.06 0.18,-0.24 0,-0.16 -0.05,-0.27 -0.22,-0.7 z"
         inkscape:connector-curvature="0"
         style="fill:#000000;stroke-width:0" /><path
         id="path9678"
         d="m 234.47,660.1 v 0.01 0.01 0.01 0.01 0.02 l -0.01,0.01 v 0.01 0.01 l -0.01,0.01 v 0.01 l -0.01,0.01 v 0.01 l -0.01,0.02 -0.01,0.01 -0.01,0.01 -0.01,0.01 v 0.01 h -0.01 l -0.01,0.01 -0.01,0.01 -0.02,0.01 -0.01,0.01 h -0.01 l -0.01,0.01 h -0.02 l -0.01,0.01 h -0.01 l -0.02,0.01 h -0.01 -0.02 -0.02 -0.01 c -0.21,0 -0.4,-0.19 -0.4,-0.38 0,-0.11 0.09,-0.26 0.28,-0.26 0.19,0 0.39,0.18 0.39,0.38 z"
         inkscape:connector-curvature="0"
         style="fill:#000000;stroke-width:0" /><path
         id="path9680"
         d="m 233,655.4 -0.02,-0.05 -0.01,-0.04 -0.01,-0.04 -0.02,-0.05 -0.02,-0.04 -0.02,-0.04 -0.02,-0.04 -0.02,-0.04 -0.02,-0.04 -0.02,-0.04 -0.03,-0.04 -0.02,-0.03 -0.03,-0.04 -0.03,-0.03 -0.03,-0.03 -0.02,-0.03 -0.03,-0.03 -0.04,-0.03 -0.03,-0.03 -0.03,-0.02 -0.03,-0.03 -0.04,-0.02 -0.03,-0.02 -0.04,-0.02 -0.03,-0.01 -0.04,-0.02 -0.04,-0.01 -0.03,-0.01 -0.04,-0.01 h -0.04 l -0.04,-0.01 h -0.03 c -0.09,0 -0.18,0.02 -0.25,0.04 0.18,0.09 0.23,0.26 0.23,0.36 0,0.17 -0.13,0.26 -0.27,0.26 -0.22,0 -0.4,-0.19 -0.4,-0.41 0,-0.27 0.27,-0.44 0.69,-0.44 0.42,0 1.24,0.25 1.45,1.1 l 0.63,2.5 c 0.02,0.07 0.04,0.13 0.04,0.24 0,0.38 -0.33,0.66 -0.75,0.66 -0.77,0 -1.22,-0.97 -1.22,-1.07 0,-0.09 0.1,-0.09 0.12,-0.09 0.08,0 0.09,0.02 0.14,0.12 0.17,0.41 0.53,0.84 0.94,0.84 0.17,0 0.24,-0.12 0.24,-0.34 0,-0.08 -0.02,-0.18 -0.03,-0.21 z"
         inkscape:connector-curvature="0"
         style="fill:#000000;stroke-width:0" /></g>    <g
       id="g9854"
       transform="matrix(0.76926177,0,0,-0.76926177,167.78116,1021.1427)"
       xml:space="preserve"
       stroke-miterlimit="10.433"
       font-style="normal"
       font-variant="normal"
       font-weight="normal"
       font-stretch="normal"
       font-size-adjust="none"
       letter-spacing="normal"
       word-spacing="normal"
       ns0:text="$\\Sigma_{t+dt}$"
       ns0:preamble="/home/uzmar/Documents/inkscape.ini"
       style="font-style:normal;font-variant:normal;font-weight:normal;font-stretch:normal;letter-spacing:normal;word-spacing:normal;text-anchor:start;fill:none;fill-opacity:1;fill-rule:evenodd;stroke:#000000;stroke-linecap:butt;stroke-linejoin:miter;stroke-miterlimit:10.43299961;stroke-dasharray:none;stroke-dashoffset:0;stroke-opacity:1"><path
         style="fill:#000000;stroke-width:0"
         inkscape:connector-curvature="0"
         d="m 227.14,660.48 v 0 l 0.01,0.01 v 0 0.01 h 0.01 v 0.01 h 0.01 v 0 0.01 0 l 0.01,0.01 0.01,0.01 v 0 0.01 l 0.01,0.01 v 0 l 0.01,0.01 v 0 0.01 0.01 h 0.01 v 0 0.01 0 0.01 0 h 0.01 v 0.01 0 0 0.01 0 0 0 0.01 0 c 0,0.05 -0.04,0.1 -0.07,0.14 l -2.04,2.95 h 2.3 c 1.68,0 2.18,-0.36 2.39,-1.94 h 0.25 l -0.28,2.25 h -5.53 c -0.24,0 -0.26,0 -0.26,-0.23 l 2.48,-3.61 -2.37,-2.7 c -0.1,-0.11 -0.1,-0.13 -0.1,-0.16 0,-0.11 0.1,-0.11 0.25,-0.11 h 5.53 l 0.28,2.35 h -0.25 c -0.18,-1.66 -0.86,-1.93 -2.42,-1.93 h -2.75 z"
         id="path9856" /><path
         style="fill:#000000;stroke-width:0"
         inkscape:connector-curvature="0"
         d="m 232.34,658.49 h 0.71 c 0.13,0 0.22,0 0.22,0.16 0,0.1 -0.09,0.1 -0.2,0.1 h -0.67 l 0.26,1.03 c 0.01,0.03 0.02,0.07 0.02,0.1 0,0.12 -0.09,0.22 -0.23,0.22 -0.18,0 -0.28,-0.12 -0.33,-0.3 -0.05,-0.18 0.04,0.16 -0.27,-1.05 h -0.71 c -0.13,0 -0.22,0 -0.22,-0.16 0,-0.1 0.08,-0.1 0.21,-0.1 h 0.66 l -0.41,-1.64 c -0.04,-0.18 -0.11,-0.43 -0.11,-0.52 0,-0.41 0.35,-0.66 0.75,-0.66 0.77,0 1.21,0.98 1.21,1.07 0,0.09 -0.09,0.09 -0.11,0.09 -0.08,0 -0.09,-0.02 -0.14,-0.13 -0.2,-0.44 -0.56,-0.83 -0.94,-0.83 -0.15,0 -0.24,0.09 -0.24,0.34 0,0.07 0.02,0.21 0.04,0.28 z"
         id="path9858" /><path
         style="fill:#000000;stroke-width:0"
         inkscape:connector-curvature="0"
         d="M 236.87,657.32 H 239 c 0.09,0 0.26,0 0.26,0.16 0,0.18 -0.16,0.18 -0.26,0.18 h -2.13 v 2.14 c 0,0.09 0,0.26 -0.17,0.26 -0.17,0 -0.17,-0.16 -0.17,-0.26 v -2.14 h -2.14 c -0.09,0 -0.26,0 -0.26,-0.17 0,-0.17 0.16,-0.17 0.26,-0.17 h 2.14 v -2.15 c 0,-0.09 0,-0.25 0.17,-0.25 0.17,0 0.17,0.16 0.17,0.25 z"
         id="path9860" /><path
         style="fill:#000000;stroke-width:0"
         inkscape:connector-curvature="0"
         d="m 245.62,658.49 h 0.71 c 0.13,0 0.22,0 0.22,0.16 0,0.1 -0.09,0.1 -0.21,0.1 h -0.66 l 0.26,1.03 c 0,0.03 0.02,0.07 0.02,0.1 0,0.12 -0.1,0.22 -0.24,0.22 -0.17,0 -0.28,-0.12 -0.33,-0.3 -0.05,-0.18 0.04,0.16 -0.26,-1.05 h -0.71 c -0.14,0 -0.23,0 -0.23,-0.16 0,-0.1 0.09,-0.1 0.21,-0.1 h 0.67 l -0.42,-1.64 c -0.04,-0.18 -0.1,-0.43 -0.1,-0.52 0,-0.41 0.35,-0.66 0.74,-0.66 0.78,0 1.22,0.98 1.22,1.07 0,0.09 -0.09,0.09 -0.11,0.09 -0.09,0 -0.09,-0.02 -0.15,-0.13 -0.2,-0.44 -0.55,-0.83 -0.93,-0.83 -0.15,0 -0.25,0.09 -0.25,0.34 0,0.07 0.03,0.21 0.04,0.28 z"
         id="path9864" /></g>    <g
       style="font-style:normal;font-variant:normal;font-weight:normal;font-stretch:normal;letter-spacing:normal;word-spacing:normal;text-anchor:start;fill:none;fill-opacity:1;fill-rule:evenodd;stroke:#000000;stroke-linecap:butt;stroke-linejoin:miter;stroke-miterlimit:10.43299961;stroke-dasharray:none;stroke-dashoffset:0;stroke-opacity:1"
       ns0:preamble="/home/uzmar/Documents/inkscape.ini"
       ns0:text="$\\Sigma_{t}$"
       word-spacing="normal"
       letter-spacing="normal"
       font-size-adjust="none"
       font-stretch="normal"
       font-weight="normal"
       font-variant="normal"
       font-style="normal"
       stroke-miterlimit="10.433"
       xml:space="preserve"
       transform="matrix(0.76926177,0,0,-0.76926177,167.78116,1056.6784)"
       id="g10056"><path
         id="path10058"
         d="m 227.14,660.48 v 0 l 0.01,0.01 v 0 0.01 h 0.01 v 0.01 h 0.01 v 0 0.01 0 l 0.01,0.01 0.01,0.01 v 0 0.01 l 0.01,0.01 v 0 l 0.01,0.01 v 0 0.01 0.01 h 0.01 v 0 0.01 0 0.01 0 h 0.01 v 0.01 0 0 0.01 0 0 0 0.01 0 c 0,0.05 -0.04,0.1 -0.07,0.14 l -2.04,2.95 h 2.3 c 1.68,0 2.18,-0.36 2.39,-1.94 h 0.25 l -0.28,2.25 h -5.53 c -0.24,0 -0.26,0 -0.26,-0.23 l 2.48,-3.61 -2.37,-2.7 c -0.1,-0.11 -0.1,-0.13 -0.1,-0.16 0,-0.11 0.1,-0.11 0.25,-0.11 h 5.53 l 0.28,2.35 h -0.25 c -0.18,-1.66 -0.86,-1.93 -2.42,-1.93 h -2.75 z"
         inkscape:connector-curvature="0"
         style="fill:#000000;stroke-width:0" /><path
         id="path10060"
         d="m 232.34,658.49 h 0.71 c 0.13,0 0.22,0 0.22,0.16 0,0.1 -0.09,0.1 -0.2,0.1 h -0.67 l 0.26,1.03 c 0.01,0.03 0.02,0.07 0.02,0.1 0,0.12 -0.09,0.22 -0.23,0.22 -0.18,0 -0.28,-0.12 -0.33,-0.3 -0.05,-0.18 0.04,0.16 -0.27,-1.05 h -0.71 c -0.13,0 -0.22,0 -0.22,-0.16 0,-0.1 0.08,-0.1 0.21,-0.1 h 0.66 l -0.41,-1.64 c -0.04,-0.18 -0.11,-0.43 -0.11,-0.52 0,-0.41 0.35,-0.66 0.75,-0.66 0.77,0 1.21,0.98 1.21,1.07 0,0.09 -0.09,0.09 -0.11,0.09 -0.08,0 -0.09,-0.02 -0.14,-0.13 -0.2,-0.44 -0.56,-0.83 -0.94,-0.83 -0.15,0 -0.24,0.09 -0.24,0.34 0,0.07 0.02,0.21 0.04,0.28 z"
         inkscape:connector-curvature="0"
         style="fill:#000000;stroke-width:0" /></g>    <g
       id="content"
       transform="matrix(0.76926177,0,0,-0.76926177,87.602593,1079.7141)"
       xml:space="preserve"
       stroke-miterlimit="10.433"
       font-style="normal"
       font-variant="normal"
       font-weight="normal"
       font-stretch="normal"
       font-size-adjust="none"
       letter-spacing="normal"
       word-spacing="normal"
       ns0:text="$\\mathbb{R}^3$"
       ns0:preamble="/home/uzmar/Documents/inkscape.ini"
       style="font-style:normal;font-variant:normal;font-weight:normal;font-stretch:normal;letter-spacing:normal;word-spacing:normal;text-anchor:start;fill:none;fill-opacity:1;fill-rule:evenodd;stroke:#000000;stroke-linecap:butt;stroke-linejoin:miter;stroke-miterlimit:10.43299961;stroke-dasharray:none;stroke-dashoffset:0;stroke-opacity:1"><path
         style="fill:#000000;stroke-width:0"
         inkscape:connector-curvature="0"
         d="m 226.1,660.36 v 0.35 2.46 c 0,0.21 0,0.54 0.62,0.54 0.85,0 1.27,-0.35 1.27,-1.53 h 0.34 c 0,0.48 -0.06,1.01 -0.37,1.42 0.4,-0.09 1.39,-0.4 1.39,-1.41 0,-0.64 -0.3,-1.15 -1.33,-1.34 v 0 c 0.28,0.37 0.31,0.9 0.31,1.33 h -0.34 c 0,-1.28 -0.31,-1.47 -1.89,-1.47 v -0.35 h 0.36 l 1.5,-2.31 c 0.09,-0.16 0.33,-0.55 0.44,-0.7 l 0.26,0.23 -1.79,2.78 c 0.07,0.01 0.11,0.02 0.19,0.02 0.15,0 0.37,0.02 0.52,0.04 0.15,-0.24 1.22,-2.01 2.05,-2.84 h -0.97 l -0.26,-0.23 c 0.07,-0.12 0.1,-0.12 0.33,-0.12 h 1.38 c 0.18,0 0.33,0 0.33,0.18 0,0.08 -0.06,0.15 -0.15,0.17 -0.37,0.08 -0.86,0.74 -1.1,1.06 -0.07,0.1 -0.57,0.75 -1.23,1.83 0.88,0.16 1.74,0.54 1.74,1.72 0,1.39 -1.47,1.87 -2.64,1.87 h -3.13 c -0.18,0 -0.34,0 -0.34,-0.18 0,-0.17 0.19,-0.17 0.27,-0.17 0.57,0 0.62,-0.07 0.62,-0.57 l 0.35,0.02 c 0,0.1 0,0.37 -0.08,0.55 h 1.13 c -0.13,-0.16 -0.13,-0.36 -0.13,-0.51 v -5.07 c 0,-0.1 0,-0.37 0.08,-0.55 h -1.08 c 0.08,0.18 0.08,0.46 0.08,0.55 v 5.03 l -0.35,-0.02 v -4.99 c 0,-0.5 -0.05,-0.57 -0.62,-0.57 -0.08,0 -0.27,0 -0.27,-0.17 0,-0.18 0.16,-0.18 0.34,-0.18 h 2.73 c 0.18,0 0.33,0 0.33,0.18 0,0.17 -0.17,0.17 -0.28,0.17 -0.57,0 -0.61,0.08 -0.61,0.57 z"
         id="path10233" /><path
         style="fill:#000000;stroke-width:0"
         inkscape:connector-curvature="0"
         d="m 232.53,663.18 h 0.05 l 0.05,-0.01 h 0.05 l 0.05,-0.01 0.04,-0.01 0.05,-0.01 0.04,-0.02 0.04,-0.01 0.05,-0.02 0.04,-0.02 0.04,-0.03 0.03,-0.02 0.04,-0.03 0.03,-0.03 0.04,-0.03 0.03,-0.03 0.03,-0.04 0.03,-0.04 0.03,-0.04 0.02,-0.04 0.02,-0.05 0.03,-0.04 0.02,-0.05 0.01,-0.06 0.02,-0.05 0.01,-0.06 0.02,-0.05 0.01,-0.06 v -0.07 l 0.01,-0.06 v -0.07 -0.07 c 0,-0.86 -0.5,-1.12 -0.9,-1.12 -0.28,0 -0.9,0.08 -1.19,0.49 0.33,0.01 0.41,0.24 0.41,0.39 0,0.22 -0.17,0.38 -0.39,0.38 -0.19,0 -0.39,-0.11 -0.39,-0.4 0,-0.66 0.73,-1.08 1.57,-1.08 0.97,0 1.64,0.65 1.64,1.34 0,0.55 -0.45,1.09 -1.21,1.25 0.73,0.27 0.99,0.79 0.99,1.22 0,0.55 -0.63,0.96 -1.4,0.96 -0.78,0 -1.37,-0.38 -1.37,-0.94 0,-0.23 0.15,-0.37 0.36,-0.37 0.22,0 0.36,0.16 0.36,0.36 0,0.2 -0.14,0.35 -0.36,0.36 0.24,0.31 0.73,0.39 0.98,0.39 0.32,0 0.76,-0.16 0.76,-0.76 0,-0.3 -0.1,-0.62 -0.28,-0.83 -0.23,-0.27 -0.43,-0.28 -0.78,-0.3 -0.17,-0.02 -0.18,-0.02 -0.22,-0.03 -0.01,0 -0.07,-0.01 -0.07,-0.09 0,-0.09 0.06,-0.09 0.18,-0.09 z"
         id="path10235" /></g>    <path
       inkscape:connector-curvature="0"
       id="path10313"
       d="m 255,537.36218 30,-20"
       style="fill:none;fill-rule:evenodd;stroke:#000000;stroke-width:0.60000002;stroke-linecap:butt;stroke-linejoin:miter;stroke-miterlimit:4;stroke-dasharray:none;stroke-opacity:1" />
    <path
       inkscape:connector-curvature="0"
       id="path10331"
       d="m 300,507.36218 30,-20"
       style="fill:none;fill-rule:evenodd;stroke:#000000;stroke-width:0.60000002;stroke-linecap:butt;stroke-linejoin:miter;stroke-miterlimit:4;stroke-dasharray:none;stroke-opacity:1;marker-end:url(#marker10339)" />
    <path
       inkscape:connector-curvature="0"
       id="path10383"
       d="m 255.00284,502.3558 43.97581,4.95381 v 0"
       style="fill:none;fill-opacity:1;fill-rule:evenodd;stroke:#000000;stroke-width:0.59038663;stroke-linecap:butt;stroke-linejoin:miter;stroke-miterlimit:4;stroke-dasharray:none;stroke-opacity:1;marker-end:url(#marker11915)" />
    <g
       style="font-style:normal;font-variant:normal;font-weight:normal;font-stretch:normal;letter-spacing:normal;word-spacing:normal;text-anchor:start;fill:none;fill-opacity:1;fill-rule:evenodd;stroke:#000000;stroke-linecap:butt;stroke-linejoin:miter;stroke-miterlimit:10.43299961;stroke-dasharray:none;stroke-dashoffset:0;stroke-opacity:1"
       ns0:preamble="/home/uzmar/Documents/inkscape.ini"
       ns0:text="$\\vec{\\beta}$"
       word-spacing="normal"
       letter-spacing="normal"
       font-size-adjust="none"
       font-stretch="normal"
       font-weight="normal"
       font-variant="normal"
       font-style="normal"
       stroke-miterlimit="10.433"
       xml:space="preserve"
       transform="matrix(0.59482718,0,0,-0.59482718,146.34291,902.99638)"
       id="g12356"><path
         id="path12358"
         d="m 229.43,665.79 -0.01,-0.01 -0.01,-0.01 -0.02,-0.02 -0.02,-0.01 -0.01,-0.02 -0.02,-0.01 -0.02,-0.02 -0.02,-0.02 -0.02,-0.02 -0.02,-0.01 -0.03,-0.04 -0.04,-0.04 -0.04,-0.04 -0.02,-0.02 -0.02,-0.02 -0.02,-0.02 -0.01,-0.02 -0.02,-0.03 -0.01,-0.02 -0.02,-0.02 -0.01,-0.02 -0.01,-0.02 -0.01,-0.02 -0.01,-0.01 -0.01,-0.02 v -0.02 l -0.01,-0.02 v -0.02 -0.01 c 0,-0.11 0.1,-0.2 0.2,-0.2 0.09,0 0.13,0.07 0.18,0.13 0.13,0.14 0.35,0.42 0.79,0.64 0.07,0.04 0.17,0.09 0.17,0.21 0,0.1 -0.07,0.15 -0.14,0.2 -0.22,0.15 -0.33,0.33 -0.41,0.57 -0.02,0.09 -0.06,0.22 -0.2,0.22 -0.13,0 -0.19,-0.13 -0.19,-0.21 0,-0.05 0.08,-0.37 0.23,-0.58 h -3.35 c -0.17,0 -0.35,0 -0.35,-0.2 0,-0.2 0.18,-0.2 0.35,-0.2 z"
         inkscape:connector-curvature="0"
         style="fill:#000000;stroke-width:0" /><path
         id="path12360"
         d="m 229.16,662.9 v 0.07 l -0.01,0.07 v 0.07 l -0.01,0.06 -0.02,0.07 -0.01,0.06 -0.02,0.07 -0.03,0.06 -0.02,0.06 -0.03,0.06 -0.03,0.06 -0.03,0.05 -0.04,0.05 -0.04,0.06 -0.04,0.05 -0.04,0.04 -0.05,0.05 -0.05,0.04 -0.05,0.04 -0.05,0.04 -0.06,0.04 -0.05,0.03 -0.06,0.03 -0.06,0.03 -0.06,0.02 -0.07,0.02 -0.07,0.02 -0.06,0.02 -0.07,0.01 -0.08,0.01 h -0.07 l -0.07,0.01 c -0.58,0 -0.86,-0.16 -1.21,-0.42 -0.55,-0.4 -1.09,-1.37 -1.28,-2.12 l -1.59,-6.33 c -0.01,-0.04 0.04,-0.1 0.12,-0.1 0.08,0 0.11,0.02 0.12,0.05 l 0.7,2.75 c 0.19,-0.6 0.62,-0.97 1.35,-0.97 l -0.03,0.22 c -0.75,0 -1.13,0.58 -1.13,1.29 0,0.1 0,0.25 0.05,0.44 l 0.63,2.52 c 0.22,0.85 0.94,2.44 2.14,2.44 0.57,0 0.92,-0.31 0.92,-0.91 v 0 c 0,-0.7 -0.38,-1.41 -0.89,-1.72 -0.27,0.1 -0.47,0.12 -0.77,0.12 -0.21,0 -0.77,0.01 -0.77,-0.32 -0.01,-0.28 0.51,-0.25 0.69,-0.25 l 0.03,0.22 c -0.14,0 -0.34,-0.01 -0.44,0.04 0.02,0.1 0.38,0.08 0.49,0.08 0.21,0 0.3,0 0.43,-0.05 v 0 c -0.13,-0.05 -0.24,-0.07 -0.48,-0.07 l -0.03,-0.22 c 0.37,0 0.52,0.01 0.82,0.13 0.37,-0.36 0.42,-0.67 0.44,-1.13 0.01,-0.58 -0.22,-1.32 -0.5,-1.71 -0.39,-0.54 -1.06,-0.9 -1.63,-0.9 l 0.03,-0.22 c 0.73,0 1.48,0.35 1.93,0.79 0.47,0.46 0.79,1.1 0.79,1.83 0,0.72 -0.37,1.24 -0.73,1.49 0.58,0.33 1.15,0.94 1.15,1.66 z"
         inkscape:connector-curvature="0"
         style="fill:#000000;stroke-width:0" /></g>    <g
       id="g12559"
       transform="matrix(0.59482718,0,0,-0.59482718,168.12862,902.81781)"
       xml:space="preserve"
       stroke-miterlimit="10.433"
       font-style="normal"
       font-variant="normal"
       font-weight="normal"
       font-stretch="normal"
       font-size-adjust="none"
       letter-spacing="normal"
       word-spacing="normal"
       ns0:text="$x^i$"
       ns0:preamble="/home/uzmar/Documents/inkscape.ini"
       style="font-style:normal;font-variant:normal;font-weight:normal;font-stretch:normal;letter-spacing:normal;word-spacing:normal;text-anchor:start;fill:none;fill-opacity:1;fill-rule:evenodd;stroke:#000000;stroke-linecap:butt;stroke-linejoin:miter;stroke-miterlimit:10.43299961;stroke-dasharray:none;stroke-dashoffset:0;stroke-opacity:1"><path
         style="fill:#000000;stroke-width:0"
         inkscape:connector-curvature="0"
         d="m 226.76,660.24 0.01,0.03 v 0.03 l 0.01,0.03 0.01,0.04 0.01,0.03 0.01,0.05 0.02,0.04 0.01,0.04 0.02,0.05 0.01,0.05 0.02,0.05 0.02,0.05 0.03,0.05 0.02,0.05 0.03,0.05 0.02,0.05 0.03,0.04 0.03,0.05 0.04,0.05 0.03,0.04 0.04,0.05 0.04,0.04 0.04,0.03 0.05,0.04 0.04,0.03 0.05,0.03 0.03,0.01 0.02,0.02 0.03,0.01 0.03,0.01 0.02,0.01 h 0.03 l 0.03,0.01 0.03,0.01 h 0.03 0.03 l 0.03,0.01 h 0.04 c 0.05,0 0.29,0 0.49,-0.13 -0.28,-0.05 -0.47,-0.3 -0.47,-0.54 0,-0.16 0.11,-0.35 0.38,-0.35 0.21,0 0.53,0.18 0.53,0.58 0,0.52 -0.58,0.66 -0.92,0.66 -0.58,0 -0.93,-0.53 -1.05,-0.76 -0.25,0.66 -0.79,0.76 -1.08,0.76 -1.03,0 -1.6,-1.29 -1.6,-1.54 0,-0.1 0.1,-0.1 0.12,-0.1 0.08,0 0.11,0.02 0.13,0.11 0.34,1.06 1,1.31 1.33,1.31 0.19,0 0.54,-0.09 0.54,-0.67 0,-0.31 -0.17,-0.98 -0.54,-2.37 -0.15,-0.62 -0.5,-1.04 -0.94,-1.04 -0.06,0 -0.29,0 -0.5,0.13 0.25,0.05 0.47,0.26 0.47,0.54 0,0.27 -0.22,0.35 -0.37,0.35 -0.3,0 -0.55,-0.26 -0.55,-0.58 0,-0.46 0.5,-0.66 0.94,-0.66 0.66,0 1.01,0.7 1.04,0.76 0.12,-0.37 0.48,-0.76 1.08,-0.76 1.03,0 1.59,1.29 1.59,1.54 0,0.1 -0.09,0.1 -0.12,0.1 -0.09,0 -0.1,-0.04 -0.13,-0.11 -0.32,-1.07 -1,-1.31 -1.32,-1.31 -0.39,0 -0.55,0.32 -0.55,0.66 0,0.22 0.06,0.44 0.17,0.88 z"
         id="path12561" /><path
         style="fill:#000000;stroke-width:0"
         inkscape:connector-curvature="0"
         d="m 231.38,665.21 v 0.01 0.01 0.01 0.01 0.01 0.01 l -0.01,0.01 v 0.01 l -0.01,0.02 v 0.01 l -0.01,0.01 v 0.01 l -0.01,0.01 -0.01,0.01 v 0.01 l -0.01,0.01 -0.01,0.01 -0.01,0.01 -0.01,0.01 -0.01,0.01 h -0.01 l -0.01,0.01 -0.02,0.01 -0.01,0.01 h -0.01 l -0.02,0.01 h -0.01 -0.02 l -0.01,0.01 h -0.02 -0.02 -0.01 c -0.19,0 -0.4,-0.18 -0.4,-0.38 0,-0.12 0.1,-0.27 0.28,-0.27 0.21,0 0.39,0.2 0.39,0.39 z"
         id="path12563" /><path
         style="fill:#000000;stroke-width:0"
         inkscape:connector-curvature="0"
         d="m 229.96,661.66 -0.01,-0.03 -0.01,-0.03 -0.01,-0.02 v -0.02 l -0.01,-0.02 v -0.01 -0.02 l -0.01,-0.02 v -0.02 l -0.01,-0.02 v -0.02 -0.01 -0.01 -0.01 -0.01 -0.01 -0.01 c 0,-0.33 0.28,-0.59 0.66,-0.59 0.7,0 1.01,0.96 1.01,1.06 0,0.09 -0.09,0.09 -0.12,0.09 -0.09,0 -0.1,-0.04 -0.13,-0.11 -0.16,-0.56 -0.47,-0.85 -0.74,-0.85 -0.14,0 -0.17,0.09 -0.17,0.25 0,0.16 0.05,0.29 0.11,0.44 0.07,0.19 0.15,0.38 0.22,0.56 0.07,0.17 0.32,0.8 0.35,0.89 0.02,0.07 0.04,0.15 0.04,0.22 0,0.33 -0.28,0.59 -0.67,0.59 -0.69,0 -1.01,-0.95 -1.01,-1.06 0,-0.09 0.1,-0.09 0.12,-0.09 0.1,0 0.11,0.03 0.13,0.11 0.18,0.6 0.48,0.85 0.74,0.85 0.11,0 0.18,-0.06 0.18,-0.25 0,-0.16 -0.04,-0.26 -0.22,-0.69 z"
         id="path12565" /></g>    <g
       style="font-style:normal;font-variant:normal;font-weight:normal;font-stretch:normal;letter-spacing:normal;word-spacing:normal;text-anchor:start;fill:none;fill-opacity:1;fill-rule:evenodd;stroke:#000000;stroke-linecap:butt;stroke-linejoin:miter;stroke-miterlimit:10.43299961;stroke-dasharray:none;stroke-dashoffset:0;stroke-opacity:1"
       ns0:preamble="/home/uzmar/Documents/inkscape.ini"
       ns0:text="$x^i-\\beta^i\\ dt$"
       word-spacing="normal"
       letter-spacing="normal"
       font-size-adjust="none"
       font-stretch="normal"
       font-weight="normal"
       font-variant="normal"
       font-style="normal"
       stroke-miterlimit="10.433"
       xml:space="preserve"
       transform="matrix(0.59482718,0,0,-0.59482718,123.48576,892.28209)"
       id="g12761"><path
         id="path12763"
         d="m 226.76,660.24 0.01,0.03 v 0.03 l 0.01,0.03 0.01,0.04 0.01,0.03 0.01,0.05 0.02,0.04 0.01,0.04 0.02,0.05 0.01,0.05 0.02,0.05 0.02,0.05 0.03,0.05 0.02,0.05 0.03,0.05 0.02,0.05 0.03,0.04 0.03,0.05 0.04,0.05 0.03,0.04 0.04,0.05 0.04,0.04 0.04,0.03 0.05,0.04 0.04,0.03 0.05,0.03 0.03,0.01 0.02,0.02 0.03,0.01 0.03,0.01 0.02,0.01 h 0.03 l 0.03,0.01 0.03,0.01 h 0.03 0.03 l 0.03,0.01 h 0.04 c 0.05,0 0.29,0 0.49,-0.13 -0.28,-0.05 -0.47,-0.3 -0.47,-0.54 0,-0.16 0.11,-0.35 0.38,-0.35 0.21,0 0.53,0.18 0.53,0.58 0,0.52 -0.58,0.66 -0.92,0.66 -0.58,0 -0.93,-0.53 -1.05,-0.76 -0.25,0.66 -0.79,0.76 -1.08,0.76 -1.03,0 -1.6,-1.29 -1.6,-1.54 0,-0.1 0.1,-0.1 0.12,-0.1 0.08,0 0.11,0.02 0.13,0.11 0.34,1.06 1,1.31 1.33,1.31 0.19,0 0.54,-0.09 0.54,-0.67 0,-0.31 -0.17,-0.98 -0.54,-2.37 -0.15,-0.62 -0.5,-1.04 -0.94,-1.04 -0.06,0 -0.29,0 -0.5,0.13 0.25,0.05 0.47,0.26 0.47,0.54 0,0.27 -0.22,0.35 -0.37,0.35 -0.3,0 -0.55,-0.26 -0.55,-0.58 0,-0.46 0.5,-0.66 0.94,-0.66 0.66,0 1.01,0.7 1.04,0.76 0.12,-0.37 0.48,-0.76 1.08,-0.76 1.03,0 1.59,1.29 1.59,1.54 0,0.1 -0.09,0.1 -0.12,0.1 -0.09,0 -0.1,-0.04 -0.13,-0.11 -0.32,-1.07 -1,-1.31 -1.32,-1.31 -0.39,0 -0.55,0.32 -0.55,0.66 0,0.22 0.06,0.44 0.17,0.88 z"
         inkscape:connector-curvature="0"
         style="fill:#000000;stroke-width:0" /><path
         id="path12765"
         d="m 231.38,665.21 v 0.01 0.01 0.01 0.01 0.01 0.01 l -0.01,0.01 v 0.01 l -0.01,0.02 v 0.01 l -0.01,0.01 v 0.01 l -0.01,0.01 -0.01,0.01 v 0.01 l -0.01,0.01 -0.01,0.01 -0.01,0.01 -0.01,0.01 -0.01,0.01 h -0.01 l -0.01,0.01 -0.02,0.01 -0.01,0.01 h -0.01 l -0.02,0.01 h -0.01 -0.02 l -0.01,0.01 h -0.02 -0.02 -0.01 c -0.19,0 -0.4,-0.18 -0.4,-0.38 0,-0.12 0.1,-0.27 0.28,-0.27 0.21,0 0.39,0.2 0.39,0.39 z"
         inkscape:connector-curvature="0"
         style="fill:#000000;stroke-width:0" /><path
         id="path12767"
         d="m 229.96,661.66 -0.01,-0.03 -0.01,-0.03 -0.01,-0.02 v -0.02 l -0.01,-0.02 v -0.01 -0.02 l -0.01,-0.02 v -0.02 l -0.01,-0.02 v -0.02 -0.01 -0.01 -0.01 -0.01 -0.01 -0.01 c 0,-0.33 0.28,-0.59 0.66,-0.59 0.7,0 1.01,0.96 1.01,1.06 0,0.09 -0.09,0.09 -0.12,0.09 -0.09,0 -0.1,-0.04 -0.13,-0.11 -0.16,-0.56 -0.47,-0.85 -0.74,-0.85 -0.14,0 -0.17,0.09 -0.17,0.25 0,0.16 0.05,0.29 0.11,0.44 0.07,0.19 0.15,0.38 0.22,0.56 0.07,0.17 0.32,0.8 0.35,0.89 0.02,0.07 0.04,0.15 0.04,0.22 0,0.33 -0.28,0.59 -0.67,0.59 -0.69,0 -1.01,-0.95 -1.01,-1.06 0,-0.09 0.1,-0.09 0.12,-0.09 0.1,0 0.11,0.03 0.13,0.11 0.18,0.6 0.48,0.85 0.74,0.85 0.11,0 0.18,-0.06 0.18,-0.25 0,-0.16 -0.04,-0.26 -0.22,-0.69 z"
         inkscape:connector-curvature="0"
         style="fill:#000000;stroke-width:0" /><path
         id="path12769"
         d="m 241.23,659.52 h 0.03 0.03 l 0.03,0.01 h 0.02 0.01 0.02 0.01 0.02 0.01 l 0.01,0.01 h 0.02 0.01 l 0.01,0.01 h 0.02 l 0.01,0.01 0.01,0.01 h 0.01 l 0.01,0.01 0.01,0.01 0.01,0.01 v 0.01 h 0.01 v 0.01 0 l 0.01,0.01 v 0.01 0 0.01 l 0.01,0.01 v 0 0.01 0.01 0.01 0.01 0 0.01 0.01 c 0,0.2 -0.17,0.2 -0.34,0.2 h -5.39 c -0.17,0 -0.35,0 -0.35,-0.2 0,-0.2 0.18,-0.2 0.35,-0.2 z"
         inkscape:connector-curvature="0"
         style="fill:#000000;stroke-width:0" /><path
         id="path12771"
         d="m 250.35,662.9 v 0.07 l -0.01,0.07 -0.01,0.07 -0.01,0.06 -0.01,0.07 -0.02,0.06 -0.02,0.07 -0.02,0.06 -0.03,0.06 -0.02,0.06 -0.03,0.06 -0.04,0.05 -0.03,0.05 -0.04,0.06 -0.04,0.05 -0.05,0.04 -0.04,0.05 -0.05,0.04 -0.05,0.04 -0.05,0.04 -0.06,0.04 -0.05,0.03 -0.06,0.03 -0.06,0.03 -0.07,0.02 -0.06,0.02 -0.07,0.02 -0.07,0.02 -0.07,0.01 -0.07,0.01 h -0.07 l -0.08,0.01 c -0.57,0 -0.85,-0.16 -1.2,-0.42 -0.55,-0.4 -1.1,-1.37 -1.29,-2.12 l -1.58,-6.33 c -0.01,-0.04 0.04,-0.1 0.12,-0.1 0.08,0 0.11,0.02 0.12,0.05 l 0.69,2.75 c 0.19,-0.6 0.63,-0.97 1.36,-0.97 l -0.03,0.22 c -0.76,0 -1.14,0.58 -1.14,1.29 0,0.1 0,0.25 0.05,0.44 l 0.64,2.52 c 0.22,0.85 0.94,2.44 2.13,2.44 0.58,0 0.93,-0.31 0.93,-0.91 v 0 c 0,-0.7 -0.38,-1.41 -0.9,-1.72 -0.27,0.1 -0.46,0.12 -0.76,0.12 -0.21,0 -0.77,0.01 -0.77,-0.32 -0.01,-0.28 0.51,-0.25 0.69,-0.25 l 0.03,0.22 c -0.14,0 -0.34,-0.01 -0.44,0.04 0.02,0.1 0.38,0.08 0.49,0.08 0.21,0 0.3,0 0.42,-0.05 v 0 c -0.12,-0.05 -0.23,-0.07 -0.47,-0.07 l -0.03,-0.22 c 0.37,0 0.52,0.01 0.81,0.13 0.38,-0.36 0.43,-0.67 0.44,-1.13 0.02,-0.58 -0.22,-1.32 -0.5,-1.71 -0.38,-0.54 -1.05,-0.9 -1.62,-0.9 l 0.03,-0.22 c 0.73,0 1.47,0.35 1.92,0.79 0.48,0.46 0.8,1.1 0.8,1.83 0,0.72 -0.37,1.24 -0.73,1.49 0.58,0.33 1.15,0.94 1.15,1.66 z"
         inkscape:connector-curvature="0"
         style="fill:#000000;stroke-width:0" /><path
         id="path12773"
         d="m 253.04,665.21 v 0.01 0.01 l -0.01,0.01 v 0.01 0.01 0.01 l -0.01,0.01 v 0.01 0.02 l -0.01,0.01 v 0.01 l -0.01,0.01 -0.01,0.01 v 0.01 l -0.01,0.01 -0.01,0.01 -0.01,0.01 -0.01,0.01 -0.01,0.01 -0.01,0.01 h -0.01 l -0.01,0.01 -0.01,0.01 -0.02,0.01 h -0.01 l -0.01,0.01 h -0.02 -0.01 l -0.02,0.01 h -0.02 -0.01 -0.02 c -0.19,0 -0.39,-0.18 -0.39,-0.38 0,-0.12 0.09,-0.27 0.28,-0.27 0.2,0 0.39,0.2 0.39,0.39 z"
         inkscape:connector-curvature="0"
         style="fill:#000000;stroke-width:0" /><path
         id="path12775"
         d="m 251.61,661.66 -0.01,-0.03 -0.01,-0.03 v -0.02 l -0.01,-0.02 v -0.02 l -0.01,-0.01 v -0.02 l -0.01,-0.02 v -0.02 -0.02 -0.02 l -0.01,-0.01 v -0.01 -0.01 -0.01 -0.01 -0.01 c 0,-0.33 0.28,-0.59 0.66,-0.59 0.7,0 1.01,0.96 1.01,1.06 0,0.09 -0.09,0.09 -0.11,0.09 -0.1,0 -0.11,-0.04 -0.14,-0.11 -0.16,-0.56 -0.46,-0.85 -0.73,-0.85 -0.14,0 -0.18,0.09 -0.18,0.25 0,0.16 0.05,0.29 0.11,0.44 0.07,0.19 0.15,0.38 0.23,0.56 0.06,0.17 0.31,0.8 0.34,0.89 0.02,0.07 0.04,0.15 0.04,0.22 0,0.33 -0.28,0.59 -0.66,0.59 -0.69,0 -1.02,-0.95 -1.02,-1.06 0,-0.09 0.1,-0.09 0.12,-0.09 0.1,0 0.11,0.03 0.13,0.11 0.18,0.6 0.49,0.85 0.75,0.85 0.11,0 0.17,-0.06 0.17,-0.25 0,-0.16 -0.04,-0.26 -0.22,-0.69 z"
         inkscape:connector-curvature="0"
         style="fill:#000000;stroke-width:0" /><path
         id="path12779"
         d="m 264.66,661.22 h 0.93 c 0.2,0 0.3,0 0.3,0.2 0,0.11 -0.1,0.11 -0.28,0.11 h -0.87 c 0.36,1.41 0.4,1.61 0.4,1.67 0,0.17 -0.11,0.27 -0.28,0.27 -0.03,0 -0.31,-0.01 -0.4,-0.36 l -0.39,-1.58 h -0.94 c -0.2,0 -0.3,0 -0.3,-0.19 0,-0.12 0.08,-0.12 0.28,-0.12 h 0.88 c -0.72,-2.83 -0.76,-3 -0.76,-3.18 0,-0.54 0.38,-0.92 0.92,-0.92 1.02,0 1.58,1.46 1.58,1.54 0,0.1 -0.08,0.1 -0.12,0.1 -0.09,0 -0.1,-0.03 -0.15,-0.14 -0.42,-1.04 -0.95,-1.28 -1.29,-1.28 -0.21,0 -0.31,0.13 -0.31,0.46 0,0.24 0.02,0.31 0.06,0.48 z"
         inkscape:connector-curvature="0"
         style="fill:#000000;stroke-width:0" /></g>    <circle
       style="opacity:1;fill:#af342d;fill-opacity:1;stroke:#461312;stroke-width:0.58999997;stroke-miterlimit:4;stroke-dasharray:none;stroke-dashoffset:0;stroke-opacity:0.74054057"
       id="path13512"
       cx="0"
       cy="0"
       r="0" />
    <circle
       style="opacity:1;fill:#ff342d;fill-opacity:1;stroke:#461312;stroke-width:0.02458234;stroke-miterlimit:4;stroke-dasharray:none;stroke-dashoffset:0;stroke-opacity:0.74054057"
       id="path13521"
       cx="300.02612"
       cy="507.35672"
       r="0.72913736" />
    <circle
       style="opacity:1;fill:#ff342d;fill-opacity:1;stroke:#461312;stroke-width:0.02458234;stroke-miterlimit:4;stroke-dasharray:none;stroke-dashoffset:0;stroke-opacity:0.74054057"
       id="path13521-6"
       cx="254.99998"
       cy="502.36212"
       r="0.72913736" />
    <circle
       style="opacity:1;fill:#ff342d;fill-opacity:1;stroke:#461312;stroke-width:0.02458234;stroke-miterlimit:4;stroke-dasharray:none;stroke-dashoffset:0;stroke-opacity:0.74054057"
       id="path13521-4"
       cx="254.99998"
       cy="537.36212"
       r="0.72913736" />
    <flowRoot
       xml:space="preserve"
       id="flowRoot103-9"
       style="font-style:normal;font-variant:normal;font-weight:normal;font-stretch:normal;font-size:40px;line-height:1.25;font-family:sans-serif;letter-spacing:0px;word-spacing:0px;text-anchor:start;fill:#000000;fill-opacity:1;fill-rule:evenodd;stroke:none;stroke-linecap:butt;stroke-linejoin:miter;stroke-miterlimit:10.43299961;stroke-dasharray:none;stroke-dashoffset:0;stroke-opacity:1"
       transform="matrix(0.11640492,0,0,0.11640492,284.64322,491.12196)"><flowRegion
         id="flowRegion105-3"><rect
           id="rect107-6"
           width="105"
           height="75"
           x="-68.234177"
           y="50.335686" /></flowRegion><flowPara
         id="flowPara109-0">d</flowPara></flowRoot>    <flowRoot
       xml:space="preserve"
       id="flowRoot103-6"
       style="font-style:normal;font-variant:normal;font-weight:normal;font-stretch:normal;font-size:40px;line-height:1.25;font-family:sans-serif;letter-spacing:0px;word-spacing:0px;text-anchor:start;fill:#000000;fill-opacity:1;fill-rule:evenodd;stroke:none;stroke-linecap:butt;stroke-linejoin:miter;stroke-miterlimit:10.43299961;stroke-dasharray:none;stroke-dashoffset:0;stroke-opacity:1"
       transform="matrix(0.11640492,0,0,0.11640492,360.64768,506.69116)"><flowRegion
         id="flowRegion105-2"><rect
           id="rect107-61"
           width="105"
           height="75"
           x="-68.234177"
           y="50.335686" /></flowRegion><flowPara
         id="flowPara109-8">d</flowPara></flowRoot>  </g>
</svg>
